<mxfile host="app.diagrams.net" modified="2021-02-16T14:59:48.553Z" agent="5.0 (Windows NT 10.0; Win64; x64) AppleWebKit/537.36 (KHTML, like Gecko) Chrome/88.0.4324.150 Safari/537.36" etag="D2oBTVtC8rF0b0foCZfv" version="14.3.2" type="github">
  <diagram id="JMjEuMPmeqMpNCArE8yY" name="Page-1">
    <mxGraphModel dx="1369" dy="590" grid="1" gridSize="10" guides="1" tooltips="1" connect="1" arrows="1" fold="1" page="1" pageScale="1" pageWidth="1169" pageHeight="827" math="0" shadow="0">
      <root>
        <mxCell id="0" />
        <mxCell id="1" parent="0" />
        <mxCell id="2jDf2Qn6jchMJB45TgVY-1" value="" style="edgeStyle=orthogonalEdgeStyle;rounded=0;orthogonalLoop=1;jettySize=auto;html=1;strokeColor=#FF0000;entryX=0;entryY=0.5;entryDx=0;entryDy=0;" edge="1" parent="1" source="2jDf2Qn6jchMJB45TgVY-2" target="2jDf2Qn6jchMJB45TgVY-11">
          <mxGeometry relative="1" as="geometry">
            <Array as="points">
              <mxPoint x="60" y="640" />
            </Array>
          </mxGeometry>
        </mxCell>
        <mxCell id="2jDf2Qn6jchMJB45TgVY-2" value="Merchandizer" style="whiteSpace=wrap;html=1;align=center;" vertex="1" parent="1">
          <mxGeometry x="10" y="480" width="100" height="40" as="geometry" />
        </mxCell>
        <mxCell id="2jDf2Qn6jchMJB45TgVY-44" value="" style="edgeStyle=orthogonalEdgeStyle;rounded=0;orthogonalLoop=1;jettySize=auto;html=1;strokeColor=#FF0000;" edge="1" parent="1" source="2jDf2Qn6jchMJB45TgVY-5" target="2jDf2Qn6jchMJB45TgVY-15">
          <mxGeometry relative="1" as="geometry" />
        </mxCell>
        <mxCell id="2jDf2Qn6jchMJB45TgVY-5" value="OL_card" style="whiteSpace=wrap;html=1;align=center;" vertex="1" parent="1">
          <mxGeometry x="520" y="480" width="100" height="40" as="geometry" />
        </mxCell>
        <mxCell id="2jDf2Qn6jchMJB45TgVY-6" style="edgeStyle=orthogonalEdgeStyle;rounded=0;orthogonalLoop=1;jettySize=auto;html=1;entryX=0.5;entryY=1;entryDx=0;entryDy=0;strokeColor=#FF0000;" edge="1" parent="1" source="2jDf2Qn6jchMJB45TgVY-7" target="2jDf2Qn6jchMJB45TgVY-9">
          <mxGeometry relative="1" as="geometry" />
        </mxCell>
        <mxCell id="2jDf2Qn6jchMJB45TgVY-7" value="Order" style="whiteSpace=wrap;html=1;align=center;" vertex="1" parent="1">
          <mxGeometry x="450" y="280" width="100" height="40" as="geometry" />
        </mxCell>
        <mxCell id="2jDf2Qn6jchMJB45TgVY-8" style="edgeStyle=orthogonalEdgeStyle;rounded=0;orthogonalLoop=1;jettySize=auto;html=1;entryX=0.5;entryY=0;entryDx=0;entryDy=0;strokeColor=#FF0000;" edge="1" parent="1" source="2jDf2Qn6jchMJB45TgVY-9" target="2jDf2Qn6jchMJB45TgVY-22">
          <mxGeometry relative="1" as="geometry" />
        </mxCell>
        <mxCell id="2jDf2Qn6jchMJB45TgVY-47" value="" style="edgeStyle=orthogonalEdgeStyle;rounded=0;orthogonalLoop=1;jettySize=auto;html=1;strokeColor=#000000;" edge="1" parent="1" source="2jDf2Qn6jchMJB45TgVY-9" target="2jDf2Qn6jchMJB45TgVY-46">
          <mxGeometry relative="1" as="geometry" />
        </mxCell>
        <mxCell id="2jDf2Qn6jchMJB45TgVY-9" value="Warehouse" style="whiteSpace=wrap;html=1;align=center;" vertex="1" parent="1">
          <mxGeometry x="450" y="170" width="100" height="40" as="geometry" />
        </mxCell>
        <mxCell id="2jDf2Qn6jchMJB45TgVY-10" value="" style="edgeStyle=orthogonalEdgeStyle;rounded=0;orthogonalLoop=1;jettySize=auto;html=1;strokeColor=#FF0000;entryX=0.5;entryY=1;entryDx=0;entryDy=0;" edge="1" parent="1" source="2jDf2Qn6jchMJB45TgVY-28" target="2jDf2Qn6jchMJB45TgVY-20">
          <mxGeometry relative="1" as="geometry">
            <mxPoint x="380" y="600" as="targetPoint" />
          </mxGeometry>
        </mxCell>
        <mxCell id="2jDf2Qn6jchMJB45TgVY-11" value="visits" style="shape=rhombus;perimeter=rhombusPerimeter;whiteSpace=wrap;html=1;align=center;" vertex="1" parent="1">
          <mxGeometry x="100" y="610" width="120" height="60" as="geometry" />
        </mxCell>
        <mxCell id="2jDf2Qn6jchMJB45TgVY-14" value="" style="edgeStyle=orthogonalEdgeStyle;rounded=0;orthogonalLoop=1;jettySize=auto;html=1;strokeColor=#FF0000;entryX=0.5;entryY=1;entryDx=0;entryDy=0;" edge="1" parent="1" source="2jDf2Qn6jchMJB45TgVY-15" target="2jDf2Qn6jchMJB45TgVY-7">
          <mxGeometry relative="1" as="geometry">
            <mxPoint x="320" y="210" as="targetPoint" />
          </mxGeometry>
        </mxCell>
        <mxCell id="2jDf2Qn6jchMJB45TgVY-15" value="if status is Success" style="shape=rhombus;perimeter=rhombusPerimeter;whiteSpace=wrap;html=1;align=center;" vertex="1" parent="1">
          <mxGeometry x="440" y="370" width="120" height="60" as="geometry" />
        </mxCell>
        <mxCell id="2jDf2Qn6jchMJB45TgVY-17" value="Ol_distibution&lt;br&gt;&amp;nbsp;record" style="whiteSpace=wrap;html=1;" vertex="1" parent="1">
          <mxGeometry x="330" y="480" width="120" height="40" as="geometry" />
        </mxCell>
        <mxCell id="2jDf2Qn6jchMJB45TgVY-41" style="edgeStyle=orthogonalEdgeStyle;rounded=0;orthogonalLoop=1;jettySize=auto;html=1;strokeColor=#000000;exitX=0;exitY=0.5;exitDx=0;exitDy=0;" edge="1" parent="1" source="2jDf2Qn6jchMJB45TgVY-20">
          <mxGeometry relative="1" as="geometry">
            <mxPoint x="380" y="520" as="targetPoint" />
            <Array as="points">
              <mxPoint x="410" y="540" />
              <mxPoint x="380" y="540" />
            </Array>
          </mxGeometry>
        </mxCell>
        <mxCell id="2jDf2Qn6jchMJB45TgVY-42" style="edgeStyle=orthogonalEdgeStyle;rounded=0;orthogonalLoop=1;jettySize=auto;html=1;strokeColor=#FF0000;entryX=0.5;entryY=1;entryDx=0;entryDy=0;exitX=1;exitY=0.5;exitDx=0;exitDy=0;" edge="1" parent="1" source="2jDf2Qn6jchMJB45TgVY-20" target="2jDf2Qn6jchMJB45TgVY-5">
          <mxGeometry relative="1" as="geometry">
            <mxPoint x="510" y="530" as="targetPoint" />
            <Array as="points">
              <mxPoint x="530" y="540" />
              <mxPoint x="570" y="540" />
            </Array>
          </mxGeometry>
        </mxCell>
        <mxCell id="2jDf2Qn6jchMJB45TgVY-20" value="makes" style="shape=rhombus;perimeter=rhombusPerimeter;whiteSpace=wrap;html=1;align=center;" vertex="1" parent="1">
          <mxGeometry x="410" y="540" width="120" height="60" as="geometry" />
        </mxCell>
        <mxCell id="2jDf2Qn6jchMJB45TgVY-21" style="edgeStyle=orthogonalEdgeStyle;rounded=0;orthogonalLoop=1;jettySize=auto;html=1;entryX=1;entryY=0.5;entryDx=0;entryDy=0;strokeColor=#FF0000;" edge="1" parent="1" source="2jDf2Qn6jchMJB45TgVY-22" target="2jDf2Qn6jchMJB45TgVY-28">
          <mxGeometry relative="1" as="geometry">
            <mxPoint x="380" y="650" as="targetPoint" />
            <Array as="points">
              <mxPoint x="660" y="640" />
            </Array>
          </mxGeometry>
        </mxCell>
        <mxCell id="2jDf2Qn6jchMJB45TgVY-22" value="Invoice" style="whiteSpace=wrap;html=1;align=center;" vertex="1" parent="1">
          <mxGeometry x="610" y="280" width="100" height="40" as="geometry" />
        </mxCell>
        <mxCell id="2jDf2Qn6jchMJB45TgVY-23" value="Distributor" style="whiteSpace=wrap;html=1;align=center;" vertex="1" parent="1">
          <mxGeometry x="120" y="250" width="100" height="40" as="geometry" />
        </mxCell>
        <mxCell id="2jDf2Qn6jchMJB45TgVY-38" style="edgeStyle=orthogonalEdgeStyle;rounded=0;orthogonalLoop=1;jettySize=auto;html=1;strokeColor=#00CC00;exitX=1;exitY=0.5;exitDx=0;exitDy=0;" edge="1" parent="1" source="2jDf2Qn6jchMJB45TgVY-24" target="2jDf2Qn6jchMJB45TgVY-9">
          <mxGeometry relative="1" as="geometry" />
        </mxCell>
        <mxCell id="2jDf2Qn6jchMJB45TgVY-24" value="Customer" style="whiteSpace=wrap;html=1;align=center;" vertex="1" parent="1">
          <mxGeometry x="270" y="170" width="100" height="40" as="geometry" />
        </mxCell>
        <mxCell id="2jDf2Qn6jchMJB45TgVY-27" value="ACME corp." style="whiteSpace=wrap;html=1;align=center;" vertex="1" parent="1">
          <mxGeometry x="10" y="394" width="100" height="40" as="geometry" />
        </mxCell>
        <mxCell id="2jDf2Qn6jchMJB45TgVY-28" value="Outlet" style="whiteSpace=wrap;html=1;align=center;" vertex="1" parent="1">
          <mxGeometry x="250" y="620" width="100" height="40" as="geometry" />
        </mxCell>
        <mxCell id="2jDf2Qn6jchMJB45TgVY-29" value="" style="edgeStyle=orthogonalEdgeStyle;rounded=0;orthogonalLoop=1;jettySize=auto;html=1;strokeColor=#FF0000;" edge="1" parent="1" source="2jDf2Qn6jchMJB45TgVY-11" target="2jDf2Qn6jchMJB45TgVY-28">
          <mxGeometry relative="1" as="geometry">
            <mxPoint x="220" y="640" as="sourcePoint" />
            <mxPoint x="320.0000000000002" y="600" as="targetPoint" />
          </mxGeometry>
        </mxCell>
        <mxCell id="2jDf2Qn6jchMJB45TgVY-37" style="edgeStyle=orthogonalEdgeStyle;rounded=0;orthogonalLoop=1;jettySize=auto;html=1;strokeColor=#00CC00;exitX=1;exitY=0.5;exitDx=0;exitDy=0;entryX=0;entryY=0.5;entryDx=0;entryDy=0;" edge="1" parent="1" source="2jDf2Qn6jchMJB45TgVY-31" target="2jDf2Qn6jchMJB45TgVY-24">
          <mxGeometry relative="1" as="geometry">
            <mxPoint x="260" y="190" as="targetPoint" />
            <Array as="points" />
          </mxGeometry>
        </mxCell>
        <mxCell id="2jDf2Qn6jchMJB45TgVY-31" value="Invoice_In" style="whiteSpace=wrap;html=1;align=center;strokeColor=#000000;" vertex="1" parent="1">
          <mxGeometry x="10" y="170" width="100" height="40" as="geometry" />
        </mxCell>
        <mxCell id="2jDf2Qn6jchMJB45TgVY-32" value="" style="edgeStyle=orthogonalEdgeStyle;rounded=0;orthogonalLoop=1;jettySize=auto;html=1;strokeColor=#00CC00;" edge="1" parent="1" source="2jDf2Qn6jchMJB45TgVY-27" target="2jDf2Qn6jchMJB45TgVY-31">
          <mxGeometry relative="1" as="geometry">
            <mxPoint x="160" y="330.0000000000001" as="sourcePoint" />
            <mxPoint x="160" y="220" as="targetPoint" />
            <Array as="points">
              <mxPoint x="60" y="394" />
            </Array>
          </mxGeometry>
        </mxCell>
        <mxCell id="2jDf2Qn6jchMJB45TgVY-34" value="START" style="text;html=1;strokeColor=#FF0000;fillColor=none;align=center;verticalAlign=middle;whiteSpace=wrap;rounded=0;" vertex="1" parent="1">
          <mxGeometry x="80" y="540" width="40" height="20" as="geometry" />
        </mxCell>
        <mxCell id="2jDf2Qn6jchMJB45TgVY-35" value="FINISH" style="text;html=1;strokeColor=#FF0000;fillColor=none;align=center;verticalAlign=middle;whiteSpace=wrap;rounded=0;" vertex="1" parent="1">
          <mxGeometry x="520" y="610" width="40" height="20" as="geometry" />
        </mxCell>
        <mxCell id="2jDf2Qn6jchMJB45TgVY-46" value="Fact_Archived_Stocks" style="whiteSpace=wrap;html=1;align=center;" vertex="1" parent="1">
          <mxGeometry x="425" y="100" width="150" height="40" as="geometry" />
        </mxCell>
        <mxCell id="2jDf2Qn6jchMJB45TgVY-59" value="" style="edgeStyle=entityRelationEdgeStyle;fontSize=12;html=1;endArrow=ERoneToMany;strokeColor=#0000FF;exitX=1;exitY=0.5;exitDx=0;exitDy=0;entryX=0;entryY=0.5;entryDx=0;entryDy=0;" edge="1" parent="1" source="2jDf2Qn6jchMJB45TgVY-27" target="2jDf2Qn6jchMJB45TgVY-23">
          <mxGeometry width="100" height="100" relative="1" as="geometry">
            <mxPoint x="260" y="430" as="sourcePoint" />
            <mxPoint x="360" y="330" as="targetPoint" />
          </mxGeometry>
        </mxCell>
        <mxCell id="2jDf2Qn6jchMJB45TgVY-61" value="" style="edgeStyle=entityRelationEdgeStyle;fontSize=12;html=1;endArrow=ERoneToMany;strokeColor=#0000FF;exitX=1;exitY=0.5;exitDx=0;exitDy=0;entryX=0;entryY=0.75;entryDx=0;entryDy=0;" edge="1" parent="1" source="2jDf2Qn6jchMJB45TgVY-23" target="2jDf2Qn6jchMJB45TgVY-24">
          <mxGeometry width="100" height="100" relative="1" as="geometry">
            <mxPoint x="260" y="430" as="sourcePoint" />
            <mxPoint x="360" y="330" as="targetPoint" />
          </mxGeometry>
        </mxCell>
        <mxCell id="2jDf2Qn6jchMJB45TgVY-62" value="" style="edgeStyle=entityRelationEdgeStyle;fontSize=12;html=1;endArrow=ERoneToMany;strokeColor=#0000FF;entryX=0.25;entryY=0;entryDx=0;entryDy=0;exitX=0.5;exitY=1;exitDx=0;exitDy=0;" edge="1" parent="1" source="2jDf2Qn6jchMJB45TgVY-24" target="2jDf2Qn6jchMJB45TgVY-28">
          <mxGeometry width="100" height="100" relative="1" as="geometry">
            <mxPoint x="300" y="210" as="sourcePoint" />
            <mxPoint x="400" y="110" as="targetPoint" />
          </mxGeometry>
        </mxCell>
        <mxCell id="2jDf2Qn6jchMJB45TgVY-63" value="" style="edgeStyle=entityRelationEdgeStyle;fontSize=12;html=1;endArrow=ERoneToMany;strokeColor=#0000FF;exitX=0.5;exitY=1;exitDx=0;exitDy=0;entryX=1;entryY=0.5;entryDx=0;entryDy=0;" edge="1" parent="1" source="2jDf2Qn6jchMJB45TgVY-24" target="2jDf2Qn6jchMJB45TgVY-2">
          <mxGeometry width="100" height="100" relative="1" as="geometry">
            <mxPoint x="240" y="414" as="sourcePoint" />
            <mxPoint x="340" y="314" as="targetPoint" />
          </mxGeometry>
        </mxCell>
        <mxCell id="2jDf2Qn6jchMJB45TgVY-65" value="" style="edgeStyle=entityRelationEdgeStyle;fontSize=12;html=1;endArrow=ERoneToMany;strokeColor=#0000FF;exitX=0.25;exitY=1;exitDx=0;exitDy=0;entryX=0;entryY=1;entryDx=0;entryDy=0;" edge="1" parent="1" source="2jDf2Qn6jchMJB45TgVY-24" target="2jDf2Qn6jchMJB45TgVY-9">
          <mxGeometry width="100" height="100" relative="1" as="geometry">
            <mxPoint x="260" y="430" as="sourcePoint" />
            <mxPoint x="360" y="330" as="targetPoint" />
          </mxGeometry>
        </mxCell>
      </root>
    </mxGraphModel>
  </diagram>
</mxfile>
